{
    "asset" : {
        "generator" : "Khronos glTF Blender I/O v1.1.46",
        "version" : "2.0"
    },
    "scene" : 0,
    "scenes" : [
        {
            "name" : "Scene",
            "nodes" : [
                0,
                1,
                2
            ]
        }
    ],
    "nodes" : [
        {
            "mesh" : 0,
            "name" : "Plane.001",
            "rotation" : [
                0.17829526960849762,
                -0.17829525470733643,
                -0.684259295463562,
                0.6842593550682068
            ],
            "scale" : [
                2.4696943759918213,
                2.16509747505188,
                0.7865191698074341
            ],
            "translation" : [
                7.6342267990112305,
                2.0777134895324707,
                2.9974372386932373
            ]
        },
        {
            "name" : "Camera",
            "rotation" : [
                0.5427027344703674,
                0.17691759765148163,
                -0.11816447973251343,
                0.8125337362289429
            ],
            "translation" : [
                2.872521162033081,
                2.9098360538482666,
                6.2451910972595215
            ]
        },
        {
            "mesh" : 1,
            "name" : "Sphere",
            "rotation" : [
                0,
                0,
                -0.7071067690849304,
                0.7071067690849304
            ],
            "translation" : [
                0,
                1.9342900514602661,
                0
            ]
        }
    ],
    "materials" : [
        {
            "doubleSided" : true,
            "emissiveFactor" : [
                0.800000011920929,
                0.800000011920929,
                0.800000011920929
            ],
            "name" : "Material.003",
            "pbrMetallicRoughness" : {}
        },
        {
            "doubleSided" : true,
            "name" : "Material.001",
            "pbrMetallicRoughness" : {}
        },
        {
            "doubleSided" : true,
            "name" : "Material.002",
            "pbrMetallicRoughness" : {}
        }
    ],
    "meshes" : [
        {
            "name" : "Plane.001",
            "primitives" : [
                {
                    "attributes" : {
                        "POSITION" : 0,
                        "NORMAL" : 1
                    },
                    "indices" : 2,
                    "material" : 0
                }
            ]
        },
        {
            "name" : "Sphere.001",
            "primitives" : [
                {
                    "attributes" : {
                        "POSITION" : 3,
                        "NORMAL" : 4
                    },
                    "indices" : 5,
                    "material" : 1
                },
                {
                    "attributes" : {
                        "POSITION" : 6,
                        "NORMAL" : 7
                    },
                    "indices" : 8,
                    "material" : 2
                }
            ]
        }
    ],
    "accessors" : [
        {
            "bufferView" : 0,
            "componentType" : 5126,
            "count" : 4,
            "max" : [
                1,
                0,
                1
            ],
            "min" : [
                -1,
                0,
                -1
            ],
            "type" : "VEC3"
        },
        {
            "bufferView" : 1,
            "componentType" : 5126,
            "count" : 4,
            "type" : "VEC3"
        },
        {
            "bufferView" : 2,
            "componentType" : 5123,
            "count" : 6,
            "type" : "SCALAR"
        },
        {
            "bufferView" : 3,
            "componentType" : 5126,
            "count" : 325,
            "max" : [
                -0.16658131778240204,
                0.9903929233551025,
                0.9935140013694763
            ],
            "min" : [
                -2.2802927494049072,
                -0.9903926253318787,
                -0.9935141801834106
            ],
            "type" : "VEC3"
        },
        {
            "bufferView" : 4,
            "componentType" : 5126,
            "count" : 325,
            "type" : "VEC3"
        },
        {
            "bufferView" : 5,
            "componentType" : 5123,
            "count" : 1824,
            "type" : "SCALAR"
        },
        {
            "bufferView" : 6,
            "componentType" : 5126,
            "count" : 365,
            "max" : [
                2.1419718265533447,
                1.0000003576278687,
                1.0031546354293823
            ],
            "min" : [
                -0.16691318154335022,
                -1,
                -1.0031546354293823
            ],
            "type" : "VEC3"
        },
        {
            "bufferView" : 7,
            "componentType" : 5126,
            "count" : 365,
            "type" : "VEC3"
        },
        {
            "bufferView" : 8,
            "componentType" : 5123,
            "count" : 2064,
            "type" : "SCALAR"
        }
    ],
    "bufferViews" : [
        {
            "buffer" : 0,
            "byteLength" : 48,
            "byteOffset" : 0
        },
        {
            "buffer" : 0,
            "byteLength" : 48,
            "byteOffset" : 48
        },
        {
            "buffer" : 0,
            "byteLength" : 12,
            "byteOffset" : 96
        },
        {
            "buffer" : 0,
            "byteLength" : 3900,
            "byteOffset" : 108
        },
        {
            "buffer" : 0,
            "byteLength" : 3900,
            "byteOffset" : 4008
        },
        {
            "buffer" : 0,
            "byteLength" : 3648,
            "byteOffset" : 7908
        },
        {
            "buffer" : 0,
            "byteLength" : 4380,
            "byteOffset" : 11556
        },
        {
            "buffer" : 0,
            "byteLength" : 4380,
            "byteOffset" : 15936
        },
        {
            "buffer" : 0,
            "byteLength" : 4128,
            "byteOffset" : 20316
        }
    ],
    "buffers" : [
        {
            "byteLength" : 24444,
            "uri" : "data:application/octet-stream;base64,"
        }
    ]
}
